# xmcd
#
# Track frame offsets:
#	150
#	10507
#	23873
#	34665
#	46779
#	58678
#	67378
#	77166
#	88806
#	101699
#	114104
#	124400
#	136913
#	146411
#
# Disc length: 2137 seconds
#
# Revision: 1
# Processed by: cddbd v1.5.1PL0 Copyright (c) Steve Scherf et al.
# Submitted via: audiograbber 1.82.01
#
DISCID=b908570e
DTITLE=Jones George - Sings His Greatest Hits
DYEAR=1962
DGENRE=
TTITLE0=Why Baby Why Lp1
TTITLE1=Seasons Of My Heart Lp1
TTITLE2=It's Ok
TTITLE3=Let Him Know
TTITLE4=Play It Cool
TTITLE5=Hold Everything
TTITLE6=Boat Of Life
TTITLE7=You Gotta Be My Baby Lp1
TTITLE8=What Am I Worth
TTITLE9=Your Heart
TTITLE10=Ragged But Right Lp1
TTITLE11=Yearning
TTITLE12=Still Hurtin
TTITLE13=Taggin Along
EXTD=
EXTT0=
EXTT1=
EXTT2=
EXTT3=
EXTT4=
EXTT5=
EXTT6=
EXTT7=
EXTT8=
EXTT9=
EXTT10=
EXTT11=
EXTT12=
EXTT13=
PLAYORDER=
